# Blender 4.0.1
# www.blender.org
mtllib Pico.mtl
o mango
v 0.094080 -0.116829 -0.017576
v 0.103759 -0.109034 -0.012428
v 0.107769 -0.105806 -0.000000
v 0.103759 -0.109034 0.012428
v 0.094080 -0.116829 0.017576
v 0.084400 -0.124624 0.012428
v 0.080390 -0.127853 -0.000000
v 0.084400 -0.124624 -0.012428
v 0.086525 -0.107448 -0.017576
v -0.086525 0.107448 -0.017576
v -0.076845 0.115243 -0.012428
v 0.096205 -0.099653 -0.012428
v -0.072836 0.118471 -0.000000
v 0.100214 -0.096424 -0.000000
v -0.076845 0.115243 0.012428
v 0.096205 -0.099653 0.012428
v -0.086525 0.107448 0.017576
v 0.086525 -0.107448 0.017576
v -0.096205 0.099653 0.012428
v 0.076845 -0.115243 0.012428
v -0.100214 0.096424 -0.000000
v 0.072836 -0.118471 -0.000000
v -0.096205 0.099653 -0.012428
v 0.076845 -0.115243 -0.012428
v -0.079382 0.098578 -0.017576
v -0.069703 0.106373 -0.012428
v -0.065693 0.109601 -0.000000
v -0.069703 0.106373 0.012428
v -0.079382 0.098578 0.017576
v -0.089062 0.090783 0.012428
v -0.093071 0.087554 -0.000000
v -0.089062 0.090783 -0.012428
v -0.090072 0.120056 -0.005145
v -0.094080 0.116829 -0.007276
v -0.088413 0.121393 0.000000
v -0.090072 0.120056 0.005145
v -0.094080 0.116829 0.007276
v -0.098087 0.113602 0.005145
v -0.099746 0.112266 0.000000
v -0.098087 0.113602 -0.005145
v -0.074318 0.102656 -0.006502
v 0.091589 -0.103370 -0.006502
v -0.072220 0.104345 -0.000000
v 0.093687 -0.101680 -0.000000
v -0.074318 0.102656 0.006502
v 0.091589 -0.103370 0.006502
v -0.079382 0.098578 0.009195
v 0.086525 -0.107448 0.009195
v -0.084446 0.094500 0.006502
v 0.081461 -0.111526 0.006502
v -0.086544 0.092811 -0.000000
v 0.079363 -0.113215 -0.000000
v -0.084446 0.094500 -0.006502
v 0.081461 -0.111526 -0.006502
v 0.086525 -0.107448 -0.009195
v -0.079382 0.098578 -0.009195
v -0.115826 0.152037 -0.005145
v -0.119833 0.148810 -0.007276
v -0.114166 0.153374 0.000000
v -0.115826 0.152037 0.005145
v -0.119833 0.148810 0.007276
v -0.123840 0.145583 0.005145
v -0.125500 0.144247 0.000000
v -0.123840 0.145583 -0.005145
v -0.086848 0.122653 -0.009285
v -0.094080 0.116829 -0.013131
v -0.086525 0.107448 -0.013131
v -0.083852 0.125065 -0.000000
v -0.086848 0.122653 0.009285
v -0.094080 0.116829 0.013131
v -0.101311 0.111006 0.009285
v -0.104307 0.108593 -0.000000
v -0.101311 0.111006 -0.009285
v -0.079293 0.113271 -0.009285
v -0.076298 0.115683 -0.000000
v -0.079293 0.113271 0.009285
v -0.094080 0.116829 0.007817
v -0.086525 0.107448 0.013131
v -0.089774 0.120296 0.005528
v -0.093757 0.101624 0.009285
v -0.096752 0.099212 -0.000000
v -0.093757 0.101624 -0.009285
v -0.089774 0.120296 -0.005528
v -0.094080 0.116829 -0.007817
v -0.087991 0.121732 0.000000
v -0.098385 0.113362 0.005528
v -0.100168 0.111926 0.000000
v -0.098385 0.113362 -0.005528
v -0.091267 0.137252 0.009654
v -0.098981 0.146831 0.009654
v -0.091267 0.137252 -0.009654
v -0.098981 0.146831 -0.009654
v -0.097399 0.120951 -0.015000
v -0.116215 0.144317 -0.015000
v -0.097399 0.120951 0.015000
v -0.116215 0.144317 0.015000
v -0.102226 0.150861 -0.012110
v -0.088022 0.133222 -0.012110
v -0.088022 0.133222 0.012110
v -0.102226 0.150861 0.012110
v -0.051523 0.174910 -0.009654
v -0.047406 0.164739 -0.009654
v -0.047406 0.164739 0.009654
v -0.051523 0.174910 0.009654
v -0.022251 0.183775 -0.005033
v -0.019654 0.177913 -0.005033
v -0.019654 0.177913 0.005033
v -0.022251 0.183775 0.005033
v -0.007397 0.184088 -0.002337
v -0.006780 0.181175 -0.002337
v -0.006780 0.181175 0.002337
v -0.007397 0.184088 0.002337
v -0.114633 0.118436 0.009654
v -0.122346 0.128015 0.009654
v -0.114633 0.118436 -0.009654
v -0.122346 0.128015 -0.009654
v -0.125592 0.132045 -0.012110
v -0.111387 0.114406 -0.012110
v -0.111387 0.114406 0.012110
v -0.125592 0.132045 0.012110
v -0.159899 0.087637 -0.009654
v -0.150840 0.081446 -0.009654
v -0.150840 0.081446 0.009654
v -0.159899 0.087637 0.009654
v -0.174803 0.060929 -0.005033
v -0.169629 0.057142 -0.005033
v -0.169629 0.057142 0.005033
v -0.174803 0.060929 0.005033
v -0.178277 0.046483 -0.002337
v -0.175562 0.045259 -0.002337
v -0.175562 0.045259 0.002337
v -0.178277 0.046483 0.002337
v -0.091267 0.137252 -0.009654
v -0.098981 0.146831 -0.009654
v -0.091267 0.137252 0.009654
v -0.098981 0.146831 0.009654
v -0.097399 0.120951 0.015000
v -0.116215 0.144317 0.015000
v -0.097399 0.120951 -0.015000
v -0.116215 0.144317 -0.015000
v -0.102226 0.150861 0.012110
v -0.088022 0.133222 0.012110
v -0.088022 0.133222 -0.012110
v -0.102226 0.150861 -0.012110
v -0.051523 0.174910 0.009654
v -0.047406 0.164739 0.009654
v -0.047406 0.164739 -0.009654
v -0.051523 0.174910 -0.009654
v -0.022251 0.183775 0.005033
v -0.019654 0.177913 0.005033
v -0.019654 0.177913 -0.005033
v -0.022251 0.183775 -0.005033
v -0.007397 0.184088 0.002337
v -0.006780 0.181175 0.002337
v -0.006780 0.181175 -0.002337
v -0.007397 0.184088 -0.002337
v -0.114633 0.118436 -0.009654
v -0.122346 0.128015 -0.009654
v -0.114633 0.118436 0.009654
v -0.122346 0.128015 0.009654
v -0.125592 0.132045 0.012110
v -0.111387 0.114406 0.012110
v -0.111387 0.114406 -0.012110
v -0.125592 0.132045 -0.012110
v -0.159899 0.087637 0.009654
v -0.150840 0.081446 0.009654
v -0.150840 0.081446 -0.009654
v -0.159899 0.087637 -0.009654
v -0.174803 0.060929 0.005033
v -0.169629 0.057142 0.005033
v -0.169629 0.057142 -0.005033
v -0.174803 0.060929 -0.005033
v -0.178277 0.046483 0.002337
v -0.175562 0.045259 0.002337
v -0.175562 0.045259 -0.002337
v -0.178277 0.046483 -0.002337
vn -0.6272 0.7789 -0.0000
vn 0.6272 -0.7789 -0.0000
vn -0.2981 -0.2400 -0.9239
vn -0.7196 -0.5795 -0.3827
vn -0.7196 -0.5795 0.3827
vn -0.2981 -0.2400 0.9239
vn 0.2981 0.2400 0.9239
vn 0.7196 0.5795 0.3827
vn 0.7196 0.5795 -0.3827
vn 0.2981 0.2400 -0.9239
vn 0.1473 0.1186 -0.9819
vn -0.0000 -0.0000 1.0000
vn 0.7946 -0.6072 -0.0000
vn -0.4238 0.9058 -0.0000
vn 0.1473 0.1186 0.9819
vn 0.7789 0.6272 -0.0000
vn -0.2899 0.9571 -0.0000
vn 0.5310 -0.8474 -0.0000
vn -0.5092 0.8606 -0.0000
vn -0.0000 -0.0000 -1.0000
vn -0.0211 0.9998 -0.0000
vn 0.1379 0.0578 -0.9888
vn 0.1379 0.0578 0.9888
vn 0.4289 -0.9034 -0.0000
vn 0.9783 0.2073 -0.0000
vn 0.1821 0.0667 -0.9810
vn 0.1821 0.0667 0.9810
vn 0.2456 -0.9694 -0.0000
vn -0.1473 -0.1186 -0.9819
vn 0.4238 -0.9058 -0.0000
vn -0.7946 0.6072 -0.0000
vn -0.1473 -0.1186 0.9819
vn -0.7789 -0.6272 -0.0000
vn -0.8732 0.4873 -0.0000
vn 0.7146 -0.6995 -0.0000
vn -0.7323 0.6810 -0.0000
vn -0.9723 0.2338 -0.0000
vn -0.0859 -0.1224 -0.9888
vn -0.0859 -0.1224 0.9888
vn 0.7911 -0.6116 -0.0000
vn -0.4112 -0.9116 -0.0000
vn -0.1040 -0.1637 -0.9810
vn -0.1040 -0.1637 0.9810
vn 0.8947 -0.4467 -0.0000
vt 0.875000 0.979925
vt 1.000000 0.979925
vt 0.375000 1.000000
vt 0.250000 1.000000
vt 0.375000 0.979925
vt 0.500000 0.979925
vt 0.500000 1.000000
vt 0.750000 0.979925
vt 0.625000 1.000000
vt 0.250000 0.979925
vt 0.750000 1.000000
vt 0.625000 0.979925
vt 0.750000 0.490000
vt 0.919706 0.419706
vt 0.990000 0.250000
vt 0.919706 0.080294
vt 0.750000 0.010000
vt 0.580294 0.080294
vt 0.510000 0.250000
vt 0.580294 0.419706
vt 0.125000 0.500000
vt 0.125000 0.520075
vt 0.000000 0.520075
vt 0.000000 0.500000
vt 0.125000 0.960945
vt 0.125000 0.979925
vt 0.000000 0.979925
vt 0.000000 0.960945
vt 0.250000 0.500000
vt 0.250000 0.520075
vt 0.250000 0.960944
vt 0.375000 0.500000
vt 0.375000 0.520075
vt 0.375000 0.960944
vt 0.500000 0.500000
vt 0.500000 0.520075
vt 0.500000 0.960944
vt 0.625000 0.500000
vt 0.625000 0.520075
vt 0.625000 0.960944
vt 0.750000 0.500000
vt 0.750000 0.520075
vt 0.750000 0.960944
vt 0.875000 0.500000
vt 0.875000 0.520075
vt 0.875000 0.960945
vt 1.000000 0.500000
vt 1.000000 0.520075
vt 1.000000 0.960945
vt 0.875000 1.000000
vt 0.125000 1.000000
vt 1.000000 1.000000
vt 0.000000 1.000000
vt 0.419706 0.419706
vt 0.250000 0.490000
vt 0.080294 0.419706
vt 0.010000 0.250000
vt 0.080294 0.080294
vt 0.250000 0.010000
vt 0.419706 0.080294
vt 0.490000 0.250000
vt 0.375000 0.375000
vt 0.625000 0.375000
vt 0.580451 0.705451
vt 0.419549 0.705451
vt 0.375000 0.750000
vt 0.250000 0.750000
vt 0.750000 0.750000
vt 0.625000 0.750000
vt 0.625000 0.875000
vt 0.375000 0.875000
vt 0.580451 0.544549
vt 0.419549 0.544549
s 0
usemtl Material.002
f 38/3/1 39/4/1 87/4/1 86/3/1
f 37/7/1 38/3/1 86/3/1 77/7/1
f 36/9/1 37/7/1 77/7/1 79/9/1
f 35/11/1 36/9/1 79/9/1 85/11/1
f 1/13/2 2/14/2 3/15/2 4/16/2 5/17/2 6/18/2 7/19/2 8/20/2
f 33/50/1 35/11/1 85/11/1 83/50/1
f 40/51/4 39/4/4 63/4/4 64/51/4
f 55/48/10 56/49/10 41/46/10 42/45/10
f 42/45/9 41/46/9 43/43/9 44/42/9
f 44/42/8 43/43/8 45/40/8 46/39/8
f 46/39/7 45/40/7 47/37/7 48/36/7
f 48/36/6 47/37/6 49/34/6 50/33/6
f 50/33/5 49/34/5 51/31/5 52/30/5
f 52/30/4 51/31/4 53/25/4 54/22/4
f 54/22/3 53/25/3 56/28/3 55/23/3
f 34/52/1 33/50/1 83/50/1 84/52/1
f 40/51/1 34/53/1 84/53/1 88/51/1
f 39/4/1 40/51/1 88/51/1 87/4/1
f 57/54/1 58/55/1 64/56/1 63/57/1 62/58/1 61/59/1 60/60/1 59/61/1
f 38/3/6 37/7/6 61/7/6 62/3/6
f 36/9/8 35/11/8 59/11/8 60/9/8
f 33/50/10 34/52/10 58/52/10 57/50/10
f 34/53/3 40/51/3 64/51/3 58/53/3
f 39/4/5 38/3/5 62/3/5 63/4/5
f 37/7/7 36/9/7 60/9/7 61/7/7
f 35/11/9 33/50/9 57/50/9 59/11/9
usemtl Material.003
f 11/1/1 10/2/1 67/2/1 74/1/1
f 19/5/1 17/6/1 78/6/1 80/5/1
f 13/8/1 11/1/1 74/1/1 75/8/1
f 21/10/1 19/5/1 80/5/1 81/10/1
f 15/12/1 13/8/1 75/8/1 76/12/1
f 8/21/3 24/22/3 9/23/3 1/24/3
f 32/25/3 23/26/3 10/27/3 25/28/3
f 7/29/4 22/30/4 24/22/4 8/21/4
f 31/31/4 21/10/4 23/26/4 32/25/4
f 6/32/5 20/33/5 22/30/5 7/29/5
f 30/34/5 19/5/5 21/10/5 31/31/5
f 5/35/6 18/36/6 20/33/6 6/32/6
f 29/37/6 17/6/6 19/5/6 30/34/6
f 4/38/7 16/39/7 18/36/7 5/35/7
f 28/40/7 15/12/7 17/6/7 29/37/7
f 3/41/8 14/42/8 16/39/8 4/38/8
f 27/43/8 13/8/8 15/12/8 28/40/8
f 2/44/9 12/45/9 14/42/9 3/41/9
f 26/46/9 11/1/9 13/8/9 27/43/9
f 1/47/10 9/48/10 12/45/10 2/44/10
f 25/49/10 10/2/10 11/1/10 26/46/10
f 24/22/1 22/30/1 52/30/1 54/22/1
f 25/49/2 26/46/2 41/46/2 56/49/2
f 32/25/2 25/28/2 56/28/2 53/25/2
f 18/36/1 16/39/1 46/39/1 48/36/1
f 23/26/1 21/10/1 81/10/1 82/26/1
f 31/31/2 32/25/2 53/25/2 51/31/2
f 9/23/1 24/22/1 54/22/1 55/23/1
f 16/39/1 14/42/1 44/42/1 46/39/1
f 26/46/2 27/43/2 43/43/2 41/46/2
f 27/43/2 28/40/2 45/40/2 43/43/2
f 22/30/1 20/33/1 50/33/1 52/30/1
f 14/42/1 12/45/1 42/45/1 44/42/1
f 28/40/2 29/37/2 47/37/2 45/40/2
f 17/6/1 15/12/1 76/12/1 78/6/1
f 10/27/1 23/26/1 82/26/1 67/27/1
f 29/37/2 30/34/2 49/34/2 47/37/2
f 20/33/1 18/36/1 48/36/1 50/33/1
f 12/45/1 9/48/1 55/48/1 42/45/1
f 30/34/2 31/31/2 51/31/2 49/34/2
f 67/2/10 66/52/10 65/50/10 74/1/10
f 74/1/9 65/50/9 68/11/9 75/8/9
f 75/8/8 68/11/8 69/9/8 76/12/8
f 76/12/7 69/9/7 70/7/7 78/6/7
f 78/6/6 70/7/6 71/3/6 80/5/6
f 80/5/5 71/3/5 72/4/5 81/10/5
f 73/51/1 72/4/1 87/4/1 88/51/1
f 81/10/4 72/4/4 73/51/4 82/26/4
f 82/26/3 73/51/3 66/53/3 67/27/3
f 68/11/1 65/50/1 83/50/1 85/11/1
f 70/7/1 69/9/1 79/9/1 77/7/1
f 71/3/1 70/7/1 77/7/1 86/3/1
f 69/9/1 68/11/1 85/11/1 79/9/1
f 66/53/1 73/51/1 88/51/1 84/53/1
f 65/50/1 66/52/1 84/52/1 83/50/1
f 72/4/1 71/3/1 86/3/1 87/4/1
usemtl Material.001
f 93/62/11 94/63/11 97/38/11 98/32/11
f 90/64/12 89/65/12 103/65/12 104/64/12
f 93/29/13 98/32/13 99/66/13 95/67/13
f 97/38/14 94/41/14 96/68/14 100/69/14
f 99/66/15 100/69/15 96/70/15 95/71/15
f 92/72/16 91/73/16 98/32/16 97/38/16
f 91/73/16 89/65/16 99/66/16 98/32/16
f 90/64/16 92/72/16 97/38/16 100/69/16
f 89/65/16 90/64/16 100/69/16 99/66/16
f 101/72/17 104/64/17 108/64/17 105/72/17
f 89/65/18 91/73/18 102/73/18 103/65/18
f 92/72/19 90/64/19 104/64/19 101/72/19
f 91/73/20 92/72/20 101/72/20 102/73/20
f 105/72/21 108/64/21 112/64/21 109/72/21
f 102/73/22 101/72/22 105/72/22 106/73/22
f 104/64/23 103/65/23 107/65/23 108/64/23
f 103/65/24 102/73/24 106/73/24 107/65/24
f 110/73/25 109/72/25 112/64/25 111/65/25
f 106/73/26 105/72/26 109/72/26 110/73/26
f 108/64/27 107/65/27 111/65/27 112/64/27
f 107/65/28 106/73/28 110/73/28 111/65/28
f 93/62/29 118/32/29 117/38/29 94/63/29
f 114/64/12 124/64/12 123/65/12 113/65/12
f 93/29/30 95/67/30 119/66/30 118/32/30
f 117/38/31 120/69/31 96/68/31 94/41/31
f 119/66/32 95/71/32 96/70/32 120/69/32
f 116/72/33 117/38/33 118/32/33 115/73/33
f 115/73/33 118/32/33 119/66/33 113/65/33
f 114/64/33 120/69/33 117/38/33 116/72/33
f 113/65/33 119/66/33 120/69/33 114/64/33
f 121/72/34 125/72/34 128/64/34 124/64/34
f 113/65/35 123/65/35 122/73/35 115/73/35
f 116/72/36 121/72/36 124/64/36 114/64/36
f 115/73/20 122/73/20 121/72/20 116/72/20
f 125/72/37 129/72/37 132/64/37 128/64/37
f 122/73/38 126/73/38 125/72/38 121/72/38
f 124/64/39 128/64/39 127/65/39 123/65/39
f 123/65/40 127/65/40 126/73/40 122/73/40
f 130/73/41 131/65/41 132/64/41 129/72/41
f 126/73/42 130/73/42 129/72/42 125/72/42
f 128/64/43 132/64/43 131/65/43 127/65/43
f 127/65/44 131/65/44 130/73/44 126/73/44
f 137/62/15 142/32/15 141/38/15 138/63/15
f 134/64/20 148/64/20 147/65/20 133/65/20
f 137/29/13 139/67/13 143/66/13 142/32/13
f 141/38/14 144/69/14 140/68/14 138/41/14
f 143/66/11 139/71/11 140/70/11 144/69/11
f 136/72/16 141/38/16 142/32/16 135/73/16
f 135/73/16 142/32/16 143/66/16 133/65/16
f 134/64/16 144/69/16 141/38/16 136/72/16
f 133/65/16 143/66/16 144/69/16 134/64/16
f 145/72/17 149/72/17 152/64/17 148/64/17
f 133/65/18 147/65/18 146/73/18 135/73/18
f 136/72/19 145/72/19 148/64/19 134/64/19
f 135/73/12 146/73/12 145/72/12 136/72/12
f 149/72/21 153/72/21 156/64/21 152/64/21
f 146/73/23 150/73/23 149/72/23 145/72/23
f 148/64/22 152/64/22 151/65/22 147/65/22
f 147/65/24 151/65/24 150/73/24 146/73/24
f 154/73/25 155/65/25 156/64/25 153/72/25
f 150/73/27 154/73/27 153/72/27 149/72/27
f 152/64/26 156/64/26 155/65/26 151/65/26
f 151/65/28 155/65/28 154/73/28 150/73/28
f 137/62/32 138/63/32 161/38/32 162/32/32
f 158/64/20 157/65/20 167/65/20 168/64/20
f 137/29/30 162/32/30 163/66/30 139/67/30
f 161/38/31 138/41/31 140/68/31 164/69/31
f 163/66/29 164/69/29 140/70/29 139/71/29
f 160/72/33 159/73/33 162/32/33 161/38/33
f 159/73/33 157/65/33 163/66/33 162/32/33
f 158/64/33 160/72/33 161/38/33 164/69/33
f 157/65/33 158/64/33 164/69/33 163/66/33
f 165/72/34 168/64/34 172/64/34 169/72/34
f 157/65/35 159/73/35 166/73/35 167/65/35
f 160/72/36 158/64/36 168/64/36 165/72/36
f 159/73/12 160/72/12 165/72/12 166/73/12
f 169/72/37 172/64/37 176/64/37 173/72/37
f 166/73/39 165/72/39 169/72/39 170/73/39
f 168/64/38 167/65/38 171/65/38 172/64/38
f 167/65/40 166/73/40 170/73/40 171/65/40
f 174/73/41 173/72/41 176/64/41 175/65/41
f 170/73/43 169/72/43 173/72/43 174/73/43
f 172/64/42 171/65/42 175/65/42 176/64/42
f 171/65/44 170/73/44 174/73/44 175/65/44
